<?xml version="1.0" encoding="UTF-8"?>
<svg version="1.1" xmlns="http://www.w3.org/2000/svg" width="499" height="251">
<path d="M0 0 C1.64428237 1.4365572 3.2712334 2.89334761 4.875 4.375 C5.58527344 5.01695313 6.29554688 5.65890625 7.02734375 6.3203125 C11.11887436 10.18593037 13.52745857 13.27420832 14.17578125 19.05859375 C14.19919217 24.5601601 14.20131974 28.76107262 10.875 33.375 C4.95279123 39.18753824 1.11307081 40.95897051 -7.2890625 40.921875 C-13.95947439 39.97089978 -19.36511497 36.57889538 -25.20996094 33.38378906 C-43.69350124 23.64717655 -66.31152167 20.95110235 -86.37890625 27.0546875 C-106.35545502 34.09543149 -121.70881926 47.63120605 -131.25244141 66.52099609 C-139.52978197 84.1086078 -141.20067529 104.65084874 -135.25390625 123.2578125 C-134.88136719 124.28648437 -134.50882813 125.31515625 -134.125 126.375 C-133.82464844 127.27992188 -133.52429688 128.18484375 -133.21484375 129.1171875 C-125.36193586 150.94215228 -107.53856631 166.85518208 -87.04101562 176.52294922 C-64.79086119 186.41757702 -40.64473608 186.97390323 -17.875 178.625 C-7.06745768 174.43861214 1.94333582 168.72661795 10.59765625 161 C11.72494141 160.195625 11.72494141 160.195625 12.875 159.375 C13.865 159.705 14.855 160.035 15.875 160.375 C9.50286104 177.87551562 -8.59020244 189.9204083 -24.6875 197.6875 C-48.4563324 208.11343985 -76.26034811 210.28537804 -101.125 202.375 C-102.13578613 202.06151611 -102.13578613 202.06151611 -103.16699219 201.74169922 C-118.5511217 196.8353894 -132.03948529 189.07365236 -144.125 178.375 C-144.82882813 177.80265625 -145.53265625 177.2303125 -146.2578125 176.640625 C-169.46583332 157.52813726 -181.93310424 126.90158779 -184.91845703 97.69140625 C-187.2720816 71.29520068 -179.72419914 42.11595576 -163.25 21.1875 C-161.88617892 19.57381857 -160.5111244 17.96956416 -159.125 16.375 C-158.45984375 15.56546875 -157.7946875 14.7559375 -157.109375 13.921875 C-119.7260694 -30.10735159 -44.81091278 -35.93443415 0 0 Z " fill="#3E3F3E" transform="translate(185.125,44.625)"/>
<path d="M0 0 C7.52905455 6.14049941 12.01471864 14.78402901 13.00390625 24.3828125 C13.39897574 35.16438635 10.69142224 43.98350084 3.7421875 52.3046875 C-3.38251916 59.26685333 -11.73840651 62.31721615 -21.5625 62.6875 C-29.67039707 62.57527997 -36.17512133 59.9051592 -43.3125 56.3125 C-55.89567159 65.70348218 -55.89567159 65.70348218 -68.3125 75.3125 C-67.28782121 77.88280771 -66.25598137 80.44751673 -65.1875 83 C-63.11166905 90.8585029 -63.84928566 97.01248394 -67.8359375 104.1171875 C-71.36642867 109.36622463 -75.84625398 112.09448647 -81.88671875 113.87109375 C-89.26178341 115.21309424 -96.12999007 113.45321104 -102.3125 109.3125 C-104.03515625 107.8046875 -104.03515625 107.8046875 -105.3125 106.3125 C-105.3125 105.6525 -105.3125 104.9925 -105.3125 104.3125 C-112.28488421 109.27854508 -119.06899214 114.41248009 -125.71533203 119.8059082 C-130.09624809 123.3125 -130.09624809 123.3125 -132.3125 123.3125 C-132.02375 124.10011719 -131.735 124.88773438 -131.4375 125.69921875 C-127.82872202 136.28747358 -127.61896121 145.32515078 -129.3125 156.3125 C-125.90514572 158.0193007 -122.48532773 159.69947424 -119.0625 161.375 C-118.09441406 161.86033203 -117.12632812 162.34566406 -116.12890625 162.84570312 C-115.19433594 163.30009766 -114.25976562 163.75449219 -113.296875 164.22265625 C-112.43803711 164.64683838 -111.57919922 165.07102051 -110.69433594 165.50805664 C-108.02484778 166.40965191 -106.90573839 166.30722452 -104.3125 165.3125 C-103.06974665 164.64987562 -101.8406878 163.96106267 -100.625 163.25 C-96.12095202 160.96872895 -92.28996163 160.45251972 -87.3125 161.3125 C-82.11118206 163.03399815 -78.05710417 165.45666186 -75.3125 170.3125 C-74.10968213 174.62605375 -73.3125 178.83020154 -73.3125 183.3125 C-58.4625 190.5725 -43.6125 197.8325 -28.3125 205.3125 C-27.3225 202.3425 -27.3225 202.3425 -26.3125 199.3125 C-22.59667268 192.96044384 -17.27384858 190.18072135 -10.3125 188.3125 C-3.14676785 187.43249781 3.06471133 189.58046975 9 193.5 C15.37631235 200.17288502 16.13129163 205.78761543 16.12109375 214.9453125 C15.17522268 222.29072567 11.10427647 226.23740118 5.8125 231 C-0.56673648 234.94011665 -7.1401186 234.90979758 -14.3125 233.3125 C-20.77224062 230.5240453 -25.66878496 225.92178761 -28.3125 219.3125 C-28.3125 218.3225 -28.3125 217.3325 -28.3125 216.3125 C-29.13975586 216.06032715 -29.96701172 215.8081543 -30.81933594 215.54833984 C-34.77993994 214.14712532 -38.44497608 212.4040365 -42.203125 210.5390625 C-42.94778015 210.17404633 -43.6924353 209.80903015 -44.45965576 209.43295288 C-46.82904649 208.27137564 -49.19604085 207.10503688 -51.5625 205.9375 C-65.03266771 198.48893541 -65.03266771 198.48893541 -79.3125 193.3125 C-82.53386995 194.83863149 -82.53386995 194.83863149 -84.40234375 196.265625 C-88.38099816 198.44615544 -92.9446674 197.94934157 -97.3125 197.3125 C-102.15396878 195.64518018 -105.7023756 192.69378024 -108.3125 188.3125 C-108.60927578 186.54751092 -108.90178141 184.7818016 -109.19140625 183.015625 C-110.14313439 179.41027931 -110.77801473 177.74229845 -113.70947266 175.38500977 C-116.75305095 173.77031406 -119.80518622 172.41406798 -123 171.125 C-124.08345703 170.64998047 -125.16691406 170.17496094 -126.28320312 169.68554688 C-128.94626981 168.52412132 -131.61954047 167.40236331 -134.3125 166.3125 C-134.90023193 167.01866455 -135.48796387 167.7248291 -136.09350586 168.45239258 C-144.99747791 179.01943601 -154.31388362 184.0470342 -168.0625 185.62890625 C-179.23562413 186.13234644 -189.68714195 182.31107147 -198.3125 175.3125 C-198.93769531 174.81105469 -199.56289062 174.30960938 -200.20703125 173.79296875 C-207.37168133 167.37756312 -211.97196574 157.94527159 -212.55078125 148.37109375 C-212.89025842 134.264441 -210.44203868 123.00269652 -200.5 112.375 C-191.86043852 104.29282959 -181.91830767 100.49311572 -170.1484375 100.24609375 C-157.19059597 100.75636675 -147.85818102 105.80163838 -138.3125 114.3125 C-132.97067129 111.44143961 -128.36828547 108.15607181 -123.6875 104.3125 C-122.72457031 103.53132813 -122.72457031 103.53132813 -121.7421875 102.734375 C-120.49526705 101.72252972 -119.25255693 100.70546812 -118.01464844 99.68261719 C-116.52658814 98.48482683 -114.97443582 97.36755979 -113.4140625 96.265625 C-110.8144478 93.84962621 -110.63107285 92.54689057 -110.3125 89.0625 C-109.30655387 82.07676297 -106.61566239 77.16922667 -101.375 72.4375 C-95.87780421 68.62311925 -92.08632495 68.22165145 -85.5625 69.0625 C-75.13243345 69.28901675 -68.88470093 62.71055023 -61.41845703 56.12011719 C-58.18097683 53.34127376 -54.76214926 50.81996199 -51.3125 48.3125 C-51.85390625 47.02279297 -51.85390625 47.02279297 -52.40625 45.70703125 C-56.81092299 34.48735032 -58.44595207 24.40960478 -53.62890625 12.87890625 C-48.68012828 3.23099192 -41.90755051 -1.94993186 -32 -6.0625 C-20.27281514 -8.05015845 -9.94595001 -6.76249253 0 0 Z " fill="#3E3F3E" transform="translate(302.3125,6.6875)"/>
<path d="M0 0 C8 0 8 0 10.4609375 2.30078125 C11.09257812 3.29464844 11.72421875 4.28851563 12.375 5.3125 C13.02210938 6.29863281 13.66921875 7.28476563 14.3359375 8.30078125 C14.88507813 9.19152344 15.43421875 10.08226562 16 11 C16.99 12.485 16.99 12.485 18 14 C18.33 9.38 18.66 4.76 19 0 C21.64 0 24.28 0 27 0 C27 9.9 27 19.8 27 30 C19 30 19 30 17.17382812 28.62304688 C16.79677734 27.99462891 16.41972656 27.36621094 16.03125 26.71875 C15.60585938 26.04199219 15.18046875 25.36523438 14.7421875 24.66796875 C14.33226562 23.95253906 13.92234375 23.23710937 13.5 22.5 C13.05914062 21.78457031 12.61828125 21.06914062 12.1640625 20.33203125 C11.08352417 18.57028398 10.03818225 16.78703502 9 15 C8.67 19.95 8.34 24.9 8 30 C5.36 30 2.72 30 0 30 C0 20.1 0 10.2 0 0 Z " fill="#3E3F3E" transform="translate(466,129)"/>
<path d="M0 0 C8 0 8 0 10.4609375 2.30078125 C11.09257812 3.29464844 11.72421875 4.28851563 12.375 5.3125 C13.02210938 6.29863281 13.66921875 7.28476563 14.3359375 8.30078125 C14.88507813 9.19152344 15.43421875 10.08226562 16 11 C16.99 12.485 16.99 12.485 18 14 C18.33 9.38 18.66 4.76 19 0 C21.64 0 24.28 0 27 0 C27 9.9 27 19.8 27 30 C19 30 19 30 17.17382812 28.62304688 C16.79677734 27.99462891 16.41972656 27.36621094 16.03125 26.71875 C15.60585937 26.04199219 15.18046875 25.36523438 14.7421875 24.66796875 C14.33226562 23.95253906 13.92234375 23.23710937 13.5 22.5 C13.05914062 21.78457031 12.61828125 21.06914062 12.1640625 20.33203125 C11.08352417 18.57028398 10.03818225 16.78703502 9 15 C8.67 19.95 8.34 24.9 8 30 C5.36 30 2.72 30 0 30 C0 20.1 0 10.2 0 0 Z " fill="#3E3F3E" transform="translate(188,129)"/>
<path d="M0 0 C4.004793 2.0023965 6.6587028 4.17998877 9 8 C10.53796708 12.61390124 10.92229404 17.38349192 9.28125 22.0390625 C7.2033786 25.97696394 5.11756056 28.35297578 1 30 C-5.09407879 31.46900581 -9.46866189 31.29752849 -15 28 C-18.79136189 24.30685992 -21.14110865 21.08567612 -21.25 15.75 C-21.18792373 11.45294242 -20.44702079 8.62834118 -18 5 C-12.18140719 -0.25092522 -7.70061453 -0.79398992 0 0 Z M-13 12 C-13.71588388 15.81804737 -13.29055839 17.46537255 -11.4375 20.875 C-9.08390643 23.29464931 -9.08390643 23.29464931 -5.5 23.625 C-1.91609357 23.29464931 -1.91609357 23.29464931 0.4375 20.875 C2.29055839 17.46537255 2.71588388 15.81804737 2 12 C-0.29014716 8.9900923 -1.79135614 7.30216097 -5.5 6.375 C-9.20864386 7.30216097 -10.70985284 8.9900923 -13 12 Z " fill="#3E3F3E" transform="translate(450,129)"/>
<path d="M0 0 C1.23556641 0.01740234 1.23556641 0.01740234 2.49609375 0.03515625 C3.32238281 0.04417969 4.14867187 0.05320313 5 0.0625 C5.63808594 0.07410156 6.27617187 0.08570313 6.93359375 0.09765625 C11.27301941 9.89016549 14.64147893 19.91585785 17.93359375 30.09765625 C14.96359375 30.09765625 11.99359375 30.09765625 8.93359375 30.09765625 C8.43859375 27.62265625 8.43859375 27.62265625 7.93359375 25.09765625 C4.30359375 25.09765625 0.67359375 25.09765625 -3.06640625 25.09765625 C-3.39640625 26.74765625 -3.72640625 28.39765625 -4.06640625 30.09765625 C-7.03640625 30.09765625 -10.00640625 30.09765625 -13.06640625 30.09765625 C-11.66428461 25.98463961 -10.25836911 21.87294613 -8.84887695 17.76245117 C-8.36963307 16.36307203 -7.89143945 14.96333276 -7.41430664 13.56323242 C-6.7294664 11.55422548 -6.04089568 9.54653155 -5.3515625 7.5390625 C-4.937854 6.32935791 -4.52414551 5.11965332 -4.09790039 3.87329102 C-2.70601485 0.1278835 -2.70601485 0.1278835 0 0 Z M1.93359375 10.09765625 C1.27359375 13.06765625 0.61359375 16.03765625 -0.06640625 19.09765625 C1.58359375 19.09765625 3.23359375 19.09765625 4.93359375 19.09765625 C4.27359375 16.12765625 3.61359375 13.15765625 2.93359375 10.09765625 C2.60359375 10.09765625 2.27359375 10.09765625 1.93359375 10.09765625 Z " fill="#3E3F3E" transform="translate(363.06640625,128.90234375)"/>
<path d="M0 0 C3.125 1.6875 3.125 1.6875 5 4 C5.8125 6.75 5.8125 6.75 6 9 C3.03 9 0.06 9 -3 9 C-3.33 8.34 -3.66 7.68 -4 7 C-4.99 7 -5.98 7 -7 7 C-7 7.99 -7 8.98 -7 10 C-6.31292969 10.25394531 -5.62585938 10.50789062 -4.91796875 10.76953125 C-4.01691406 11.11371094 -3.11585938 11.45789063 -2.1875 11.8125 C-0.84751953 12.31716797 -0.84751953 12.31716797 0.51953125 12.83203125 C2.97968326 13.99043353 4.37414773 14.83745863 6 17 C6.62193199 21.8199729 6.74976329 23.8632621 4.0625 27.9375 C0.05307594 30.63772437 -3.19960012 31.28785467 -8 31 C-11.84517992 29.71827336 -13.48553593 28.7031009 -15.875 25.4375 C-17 23 -17 23 -17 21 C-14.03 21 -11.06 21 -8 21 C-7.67 21.66 -7.34 22.32 -7 23 C-5.68 23 -4.36 23 -3 23 C-2.67 22.01 -2.34 21.02 -2 20 C-2.67546875 19.82984375 -3.3509375 19.6596875 -4.046875 19.484375 C-13.31722558 16.96584045 -13.31722558 16.96584045 -16 13 C-17.07348469 10.00957837 -17.11847103 8.45234395 -16.3125 5.375 C-12.68213478 -1.19423231 -6.76456514 -0.90194202 0 0 Z " fill="#3E3F3E" transform="translate(239,129)"/>
<path d="M0 0 C6.27 0 12.54 0 19 0 C19 2.31 19 4.62 19 7 C15.37 7 11.74 7 8 7 C8 8.65 8 10.3 8 12 C11.3 12 14.6 12 18 12 C18 13.98 18 15.96 18 18 C14.7 18 11.4 18 8 18 C8 19.98 8 21.96 8 24 C11.63 24 15.26 24 19 24 C19 25.98 19 27.96 19 30 C12.73 30 6.46 30 0 30 C0 20.1 0 10.2 0 0 Z " fill="#3E3F3E" transform="translate(280,129)"/>
<path d="M0 0 C7.59 0 15.18 0 23 0 C23 2.31 23 4.62 23 7 C20.36 7 17.72 7 15 7 C15 14.59 15 22.18 15 30 C12.36 30 9.72 30 7 30 C7 22.41 7 14.82 7 7 C4.69 7 2.38 7 0 7 C0 4.69 0 2.38 0 0 Z " fill="#3E3F3E" transform="translate(385,129)"/>
<path d="M0 0 C7.59 0 15.18 0 23 0 C23 2.31 23 4.62 23 7 C20.36 7 17.72 7 15 7 C15 14.59 15 22.18 15 30 C12.36 30 9.72 30 7 30 C7 22.41 7 14.82 7 7 C4.69 7 2.38 7 0 7 C0 4.69 0 2.38 0 0 Z " fill="#3E3F3E" transform="translate(251,129)"/>
<path d="M0 0 C2.64 0 5.28 0 8 0 C8 7.92 8 15.84 8 24 C11.3 24 14.6 24 18 24 C18 25.98 18 27.96 18 30 C12.06 30 6.12 30 0 30 C0 20.1 0 10.2 0 0 Z " fill="#3E3F3E" transform="translate(329,129)"/>
<path d="M0 0 C2.64 0 5.28 0 8 0 C8 7.92 8 15.84 8 24 C11.3 24 14.6 24 18 24 C18 25.98 18 27.96 18 30 C12.06 30 6.12 30 0 30 C0 20.1 0 10.2 0 0 Z " fill="#3E3F3E" transform="translate(306,129)"/>
<path d="M0 0 C2.64 0 5.28 0 8 0 C8 9.9 8 19.8 8 30 C5.36 30 2.72 30 0 30 C0 20.1 0 10.2 0 0 Z " fill="#3E3F3E" transform="translate(414,129)"/>
</svg>
